<?xml version="1.0" standalone="no"?>
<!DOCTYPE svg PUBLIC "-//W3C//DTD SVG 20010904//EN"
 "http://www.w3.org/TR/2001/REC-SVG-20010904/DTD/svg10.dtd">
<svg version="1.0" xmlns="http://www.w3.org/2000/svg"
 width="2451.000000pt" height="2451.000000pt" viewBox="0 0 2451.000000 2451.000000"
 preserveAspectRatio="xMidYMid meet">
<metadata>
Created by potrace 1.14, written by Peter Selinger 2001-2017
</metadata>
<g transform="translate(0.000000,2451.000000) scale(0.100000,-0.100000)"
fill="#000000" stroke="none">
<path d="M11710 15620 c0 -6 -35 -10 -85 -10 -50 0 -85 -4 -85 -10 0 -6 -47
-10 -120 -10 -73 0 -120 -4 -120 -10 0 -5 -13 -10 -30 -10 -23 0 -30 -4 -30
-20 0 -11 -4 -20 -10 -20 -5 0 -10 -9 -10 -20 0 -11 -4 -20 -10 -20 -5 0 -10
-18 -10 -40 0 -22 -4 -40 -10 -40 -5 0 -10 -18 -10 -40 0 -22 -4 -40 -10 -40
-5 0 -10 -13 -10 -30 0 -16 -4 -30 -10 -30 -5 0 -10 -18 -10 -40 0 -22 -4 -40
-10 -40 -5 0 -10 -13 -10 -30 0 -16 -4 -30 -10 -30 -5 0 -10 -13 -10 -30 0
-16 -4 -30 -10 -30 -5 0 -10 -18 -10 -40 0 -22 -4 -40 -10 -40 -5 0 -10 -18
-10 -40 0 -22 -4 -40 -10 -40 -5 0 -10 -18 -10 -40 0 -22 -4 -40 -10 -40 -5 0
-10 -13 -10 -30 0 -16 -4 -30 -10 -30 -5 0 -10 -18 -10 -40 0 -22 -4 -40 -10
-40 -5 0 -10 -18 -10 -40 0 -22 -4 -40 -10 -40 -5 0 -10 -18 -10 -40 0 -22 -4
-40 -10 -40 -5 0 -10 -13 -10 -30 0 -16 -4 -30 -10 -30 -5 0 -10 -9 -10 -20 0
-12 -7 -20 -16 -20 -20 0 -44 -24 -44 -44 0 -9 -4 -16 -10 -16 -5 0 -10 -13
-10 -30 0 -16 -4 -30 -10 -30 -5 0 -10 -13 -10 -30 0 -21 -5 -30 -16 -30 -30
0 -44 -27 -44 -84 0 -31 -4 -56 -10 -56 -5 0 -10 -22 -10 -50 0 -27 5 -50 10
-50 6 0 10 -47 10 -120 0 -73 4 -120 10 -120 6 0 10 -8 10 -18 0 -10 9 -24 20
-32 11 -8 20 -21 20 -30 0 -9 9 -22 20 -30 11 -8 20 -22 20 -32 0 -10 5 -18
10 -18 6 0 10 -8 10 -18 0 -10 9 -24 20 -32 11 -8 20 -22 20 -32 0 -10 5 -18
10 -18 6 0 10 -18 10 -40 0 -22 -3 -40 -6 -40 -11 0 -34 29 -34 44 0 9 -8 16
-20 16 -11 0 -20 7 -20 15 0 20 -65 85 -85 85 -8 0 -15 5 -15 10 0 6 -22 10
-50 10 -27 0 -50 -4 -50 -10 0 -5 -9 -10 -20 -10 -11 0 -20 -4 -20 -10 0 -5
-9 -10 -20 -10 -11 0 -20 -4 -20 -10 0 -5 -9 -10 -20 -10 -11 0 -20 -4 -20
-10 0 -5 -8 -10 -18 -10 -10 0 -24 -9 -32 -20 -8 -11 -25 -20 -38 -20 -13 0
-30 -7 -39 -15 -8 -9 -28 -19 -44 -22 -16 -3 -29 -9 -29 -14 0 -5 -9 -9 -20
-9 -11 0 -20 -4 -20 -10 0 -5 -8 -10 -18 -10 -10 0 -24 -9 -32 -20 -8 -11 -22
-20 -32 -20 -10 0 -18 -4 -18 -10 0 -5 -9 -10 -20 -10 -11 0 -20 -4 -20 -10 0
-5 -22 -10 -50 -10 -27 0 -50 5 -50 10 0 6 -13 10 -30 10 -16 0 -30 5 -30 10
0 6 -13 10 -30 10 -16 0 -30 5 -30 10 0 6 -13 10 -30 10 -16 0 -30 5 -30 10 0
6 -13 10 -30 10 -16 0 -30 5 -30 10 0 6 -13 10 -30 10 -16 0 -30 5 -30 10 0 6
-13 10 -30 10 -16 0 -30 5 -30 10 0 6 -9 10 -20 10 -11 0 -20 5 -20 10 0 6
-13 10 -30 10 -16 0 -30 5 -30 10 0 6 -13 10 -30 10 -16 0 -30 5 -30 10 0 6
-13 10 -30 10 -16 0 -30 5 -30 10 0 6 -13 10 -30 10 -16 0 -30 5 -30 10 0 6
-13 10 -30 10 -16 0 -30 5 -30 10 0 6 -13 10 -30 10 -16 0 -30 5 -30 10 0 6
-9 10 -20 10 -11 0 -20 5 -20 10 0 6 -18 10 -40 10 -22 0 -40 5 -40 10 0 6 -9
10 -20 10 -11 0 -20 5 -20 10 0 6 -13 10 -30 10 -16 0 -30 5 -30 10 0 6 9 10
20 10 11 0 20 5 20 10 0 6 9 10 20 10 11 0 20 5 20 10 0 6 9 10 20 10 11 0 20
5 20 10 0 6 9 10 20 10 11 0 20 5 20 10 0 6 8 10 18 10 10 0 24 9 32 20 12 16
26 20 72 20 32 0 58 4 58 10 0 6 23 10 50 10 28 0 50 5 50 10 0 6 23 10 50 10
28 0 50 5 50 10 0 6 7 10 15 10 9 0 27 11 40 25 22 21 25 33 25 90 0 37 -4 65
-10 65 -5 0 -10 23 -10 50 0 28 -4 50 -10 50 -6 0 -10 27 -10 60 0 33 -4 60
-10 60 -6 0 -10 27 -10 60 0 33 -4 60 -10 60 -6 0 -10 27 -10 60 0 33 -4 60
-10 60 -6 0 -10 27 -10 60 0 33 -4 60 -10 60 -6 0 -10 27 -10 60 0 33 -4 60
-10 60 -5 0 -10 18 -10 40 0 22 5 40 10 40 6 0 10 -4 10 -10 0 -5 9 -10 20
-10 11 0 20 -4 20 -10 0 -6 30 -10 70 -10 40 0 70 4 70 10 0 6 14 10 30 10
l30 0 0 -60 c0 -33 4 -60 10 -60 6 0 10 -30 10 -70 0 -40 4 -70 10 -70 6 0 10
-31 10 -74 0 -41 5 -78 10 -81 6 -3 10 -37 10 -76 0 -39 4 -69 10 -69 6 0 10
-27 10 -60 0 -33 4 -60 10 -60 6 0 10 -19 10 -43 0 -43 18 -97 33 -97 4 0 7
-9 7 -20 0 -16 7 -20 30 -20 17 0 30 -4 30 -10 0 -5 18 -10 40 -10 22 0 40 5
40 10 0 6 30 10 70 10 40 0 70 4 70 10 0 6 9 10 20 10 11 0 20 -4 20 -10 0
-15 216 -13 259 3 20 6 46 22 59 34 21 21 22 30 22 158 0 83 -4 135 -10 135
-6 0 -10 37 -10 90 0 53 -4 90 -10 90 -6 0 -10 43 -10 110 0 67 -4 110 -10
110 -6 0 -10 36 -10 89 0 62 -4 91 -12 93 -9 3 -8 9 4 21 13 14 36 17 112 17
57 0 96 4 96 10 0 6 14 10 30 10 23 0 30 4 30 20 0 11 5 20 10 20 6 0 10 9 10
20 0 11 5 20 10 20 6 0 10 14 10 30 0 17 -4 30 -10 30 -5 0 -10 23 -10 50 0
28 -4 50 -10 50 -5 0 -10 18 -10 40 0 22 -4 40 -10 40 -5 0 -10 23 -10 50 0
28 -4 50 -10 50 -5 0 -10 14 -10 30 0 17 -4 30 -10 30 -5 0 -10 20 -10 45 0
39 -5 51 -35 80 l-34 35 -106 0 c-63 0 -105 -4 -105 -10 0 -6 -47 -10 -120
-10 -73 0 -120 -4 -120 -10 0 -6 -37 -10 -90 -10 -53 0 -90 -4 -90 -10 0 -5
-18 -10 -40 -10 -22 0 -40 -4 -40 -10 0 -6 -40 -10 -100 -10 -60 0 -100 -4
-100 -10 0 -6 -30 -10 -70 -10 -40 0 -70 -4 -70 -10 0 -6 -30 -10 -70 -10 -40
0 -70 -4 -70 -10 0 -5 -9 -10 -20 -10 -11 0 -20 -4 -20 -10 0 -5 -13 -10 -30
-10 -16 0 -30 5 -30 10 0 6 -27 10 -60 10 -33 0 -60 -4 -60 -10 0 -5 -22 -10
-50 -10 -27 0 -50 -4 -50 -10 0 -5 -22 -10 -50 -10 -27 0 -50 -4 -50 -10 0 -5
-18 -10 -40 -10 -22 0 -40 -4 -40 -10 0 -5 -9 -10 -20 -10 -11 0 -20 -4 -20
-10 0 -5 -18 -10 -40 -10 -22 0 -40 -4 -40 -10 0 -5 -18 -10 -40 -10 -22 0
-40 -4 -40 -10 0 -5 -16 -10 -36 -10 -28 0 -43 -8 -67 -32 -19 -21 -32 -28
-34 -20 -5 14 -63 17 -63 2 0 -6 -27 -10 -60 -10 -33 0 -60 -4 -60 -10 0 -6
-40 -10 -100 -10 -60 0 -100 -4 -100 -10 0 -6 -40 -10 -100 -10 -60 0 -100 -4
-100 -10 0 -5 -12 -10 -26 -10 -16 0 -39 -13 -60 -34 -29 -29 -34 -41 -34 -80
0 -25 5 -46 10 -46 6 0 10 -18 10 -40 0 -22 5 -40 10 -40 6 0 10 -18 10 -40 0
-22 5 -40 10 -40 6 0 10 -13 10 -30 0 -16 5 -30 10 -30 6 0 10 -18 10 -40 0
-22 5 -40 10 -40 6 0 10 -13 10 -30 0 -16 5 -30 10 -30 6 0 10 -18 10 -40 0
-22 5 -40 10 -40 6 0 10 -13 10 -30 0 -16 5 -30 10 -30 6 0 10 -18 10 -40 0
-22 5 -40 10 -40 6 0 10 -18 10 -40 0 -22 5 -40 10 -40 6 0 10 -18 10 -40 0
-22 5 -40 10 -40 6 0 10 -18 10 -40 0 -33 -3 -40 -20 -40 -13 0 -20 7 -20 20
0 11 -4 20 -10 20 -5 0 -10 18 -10 40 0 22 -4 40 -10 40 -5 0 -10 14 -10 30 0
17 -4 30 -10 30 -5 0 -10 18 -10 40 0 22 -4 40 -10 40 -5 0 -10 18 -10 40 0
22 -4 40 -10 40 -5 0 -10 9 -10 20 0 11 -4 20 -10 20 -5 0 -10 18 -10 40 0 22
-4 40 -10 40 -5 0 -10 9 -10 20 0 11 -4 20 -10 20 -5 0 -10 18 -10 40 0 22 -4
40 -10 40 -5 0 -10 14 -10 30 0 17 -4 30 -10 30 -5 0 -10 14 -10 30 0 17 -4
30 -10 30 -5 0 -10 14 -10 30 0 17 -4 30 -10 30 -5 0 -10 14 -10 30 0 17 -4
30 -10 30 -5 0 -10 7 -10 16 0 20 -24 44 -44 44 -9 0 -16 5 -16 10 0 6 -18 10
-40 10 -22 0 -40 -4 -40 -10 0 -5 -13 -10 -30 -10 -16 0 -30 -4 -30 -10 0 -5
-9 -10 -20 -10 -11 0 -20 -4 -20 -10 0 -5 -13 -10 -30 -10 -16 0 -30 -4 -30
-10 0 -5 -18 -10 -40 -10 -22 0 -40 -4 -40 -10 0 -5 -9 -10 -20 -10 -11 0 -20
-4 -20 -10 0 -5 -9 -10 -20 -10 -11 0 -20 -4 -20 -10 0 -5 -13 -10 -28 -10
-16 0 -34 -8 -42 -20 -8 -11 -22 -20 -32 -20 -10 0 -18 -4 -18 -10 0 -5 -11
-10 -25 -10 -16 0 -39 -13 -60 -35 -33 -32 -35 -38 -35 -100 0 -37 4 -65 10
-65 6 0 10 -13 10 -30 0 -16 5 -30 10 -30 6 0 10 -9 10 -20 0 -11 -4 -20 -8
-20 -4 0 -14 9 -22 20 -8 12 -26 20 -42 20 -15 0 -28 5 -28 10 0 6 -9 10 -20
10 -11 0 -20 5 -20 10 0 6 -18 10 -40 10 -22 0 -40 5 -40 10 0 6 -27 10 -60
10 -33 0 -60 4 -60 10 0 6 -40 10 -100 10 -60 0 -100 -4 -100 -10 0 -6 -27
-10 -60 -10 -33 0 -60 -4 -60 -10 0 -5 -13 -10 -30 -10 -16 0 -30 -4 -30 -10
0 -5 -13 -10 -30 -10 -16 0 -30 -4 -30 -10 0 -5 -9 -10 -20 -10 -11 0 -20 -4
-20 -10 0 -5 -9 -10 -20 -10 -11 0 -20 -4 -20 -10 0 -5 -9 -10 -20 -10 -11 0
-20 -4 -20 -10 0 -5 -8 -10 -18 -10 -10 0 -24 -9 -32 -20 -8 -11 -21 -20 -28
-20 -7 0 -31 -18 -52 -40 -21 -22 -43 -40 -50 -40 -15 0 -60 -46 -60 -62 0 -8
-9 -20 -20 -28 -11 -8 -20 -21 -20 -30 0 -15 -34 -47 -42 -39 -8 7 -38 -29
-38 -45 0 -9 -4 -16 -10 -16 -5 0 -10 -9 -10 -20 0 -11 -4 -20 -10 -20 -5 0
-10 -13 -10 -30 0 -16 -4 -30 -10 -30 -5 0 -10 -18 -10 -40 0 -22 -4 -40 -10
-40 -6 0 -10 -63 -10 -170 0 -107 4 -170 10 -170 6 0 10 -18 10 -40 0 -22 5
-40 10 -40 6 0 10 -13 10 -30 0 -16 5 -30 10 -30 6 0 10 -9 10 -20 0 -11 5
-20 10 -20 6 0 10 -8 10 -18 0 -10 9 -24 20 -32 11 -8 20 -21 20 -28 0 -7 18
-31 40 -52 22 -21 40 -43 40 -50 0 -14 46 -60 60 -60 7 0 29 -18 50 -40 21
-22 45 -40 52 -40 7 0 20 -9 28 -20 8 -11 22 -20 32 -20 10 0 18 -4 18 -10 0
-5 9 -10 20 -10 11 0 20 -4 20 -10 0 -5 9 -10 20 -10 11 0 20 -4 20 -10 0 -5
14 -10 30 -10 17 0 30 -4 30 -10 0 -6 30 -10 70 -10 40 0 70 -4 70 -10 0 -6
33 -10 80 -10 47 0 80 4 80 10 0 6 27 10 60 10 33 0 60 4 60 10 0 6 18 10 40
10 22 0 40 5 40 10 0 6 14 10 30 10 17 0 30 5 30 10 0 6 14 10 30 10 17 0 30
5 30 10 0 6 9 10 20 10 11 0 20 5 20 10 0 6 9 10 20 10 11 0 20 5 20 10 0 6 9
10 20 10 11 0 20 5 20 10 0 6 8 10 18 10 10 0 24 9 32 20 8 11 21 20 28 20 7
0 31 18 52 40 21 22 46 40 54 40 9 0 16 8 16 18 0 10 9 24 20 32 11 8 20 21
20 30 0 9 9 22 20 30 12 8 20 26 20 42 0 15 5 28 10 28 6 0 10 9 10 20 0 11 5
20 10 20 6 0 10 14 10 30 0 17 5 30 10 30 6 0 10 27 10 60 0 33 3 60 6 60 11
0 34 -29 34 -44 0 -9 7 -16 16 -16 9 0 29 -13 44 -30 15 -16 34 -30 42 -30 7
0 20 -9 28 -20 8 -11 22 -20 32 -20 10 0 18 -4 18 -10 0 -5 9 -10 20 -10 11 0
20 -4 20 -10 0 -5 14 -10 30 -10 17 0 30 -4 30 -10 0 -5 18 -10 40 -10 22 0
40 -4 40 -10 0 -6 47 -10 120 -10 73 0 120 4 120 10 0 6 18 10 40 10 22 0 40
5 40 10 0 6 23 10 50 10 28 0 50 5 50 10 0 6 14 10 30 10 17 0 30 5 30 10 0 6
14 10 30 10 17 0 30 5 30 10 0 6 14 10 30 10 17 0 30 5 30 10 0 6 9 10 20 10
11 0 20 5 20 10 0 6 8 10 18 10 10 0 24 9 32 20 8 11 21 20 28 20 8 0 27 14
42 30 15 17 33 30 39 30 16 0 101 87 101 103 0 7 9 19 20 27 11 8 20 20 20 28
0 13 23 42 34 42 3 0 6 -18 6 -40 0 -22 5 -40 10 -40 6 0 10 -18 10 -40 0 -22
5 -40 10 -40 6 0 10 -13 10 -30 0 -21 5 -30 16 -30 15 0 44 -23 44 -34 0 -3
-9 -6 -20 -6 -11 0 -20 -4 -20 -10 0 -5 -9 -10 -20 -10 -11 0 -20 -4 -20 -10
0 -5 -18 -10 -40 -10 -22 0 -40 -4 -40 -10 0 -5 -9 -10 -20 -10 -11 0 -20 -4
-20 -10 0 -5 -13 -10 -30 -10 -16 0 -30 -4 -30 -10 0 -5 -13 -10 -30 -10 -16
0 -30 -4 -30 -10 0 -5 -9 -10 -20 -10 -11 0 -20 -4 -20 -10 0 -5 -13 -10 -30
-10 -16 0 -30 -4 -30 -10 0 -5 -13 -10 -30 -10 -16 0 -30 -4 -30 -10 0 -5 -13
-10 -30 -10 -16 0 -30 -4 -30 -10 0 -5 -13 -10 -30 -10 -16 0 -30 -4 -30 -10
0 -5 -13 -10 -30 -10 -16 0 -30 -4 -30 -10 0 -5 -13 -10 -30 -10 -16 0 -30 -4
-30 -10 0 -5 -9 -10 -20 -10 -11 0 -20 -4 -20 -10 0 -5 -13 -10 -30 -10 -16 0
-30 -4 -30 -10 0 -5 -13 -10 -30 -10 -16 0 -30 -4 -30 -10 0 -5 -13 -10 -30
-10 -16 0 -30 -4 -30 -10 0 -5 -13 -10 -30 -10 -16 0 -30 -4 -30 -10 0 -5 -13
-10 -30 -10 -16 0 -30 -4 -30 -10 0 -5 -13 -10 -30 -10 -16 0 -30 -4 -30 -10
0 -5 -9 -10 -20 -10 -11 0 -20 -4 -20 -10 0 -5 -16 -10 -35 -10 -27 0 -44 -8
-70 -35 -31 -30 -35 -41 -35 -85 0 -44 4 -55 35 -85 34 -34 36 -35 120 -35 50
0 85 4 85 10 0 6 37 10 90 10 53 0 90 4 90 10 0 6 30 10 70 10 40 0 70 4 70
10 0 6 33 10 80 10 47 0 80 4 80 10 0 6 33 10 80 10 47 0 80 4 80 10 0 6 33
10 80 10 47 0 80 4 80 10 0 6 33 10 80 10 47 0 80 4 80 10 0 6 37 10 90 10 53
0 90 -4 90 -10 0 -5 18 -10 40 -10 22 0 40 -4 40 -10 0 -5 18 -10 40 -10 22 0
40 -4 40 -8 0 -4 17 -9 38 -10 20 -2 39 -7 40 -12 2 -6 26 -10 53 -10 27 0 49
-4 49 -10 0 -5 14 -10 30 -10 17 0 30 -4 30 -10 0 -5 18 -10 40 -10 22 0 40
-4 40 -10 0 -5 18 -10 40 -10 22 0 40 -4 40 -10 0 -5 18 -10 40 -10 22 0 40
-4 40 -10 0 -5 18 -10 40 -10 22 0 40 -4 40 -10 0 -5 18 -10 40 -10 22 0 40
-4 40 -10 0 -5 14 -10 30 -10 17 0 30 -4 30 -10 0 -5 -18 -10 -40 -10 -22 0
-40 -4 -40 -10 0 -5 -7 -10 -15 -10 -20 0 -65 -45 -65 -65 0 -8 -9 -15 -20
-15 -13 0 -20 7 -20 18 0 10 -9 24 -20 32 -11 8 -20 21 -20 30 0 9 -9 22 -20
30 -11 8 -20 21 -20 29 0 33 -32 40 -177 41 -89 0 -143 -4 -143 -10 0 -6 -49
-10 -126 -10 -130 0 -154 -7 -154 -44 0 -9 -4 -16 -10 -16 -6 0 -10 -50 -10
-130 0 -80 4 -130 10 -130 6 0 10 -70 10 -190 0 -120 -4 -190 -10 -190 -5 0
-10 -18 -10 -40 0 -22 -4 -40 -10 -40 -5 0 -10 18 -10 40 0 22 -4 40 -10 40
-5 0 -10 18 -10 40 0 22 -4 40 -10 40 -5 0 -10 18 -10 40 0 22 -4 40 -10 40
-5 0 -10 18 -10 40 0 22 -4 40 -10 40 -5 0 -10 18 -10 40 0 22 -4 40 -10 40
-5 0 -10 18 -10 40 0 22 -4 40 -10 40 -5 0 -10 18 -10 40 0 22 -4 40 -10 40
-5 0 -10 18 -10 40 0 22 -4 40 -10 40 -5 0 -10 14 -10 30 0 17 -4 30 -10 30
-5 0 -10 7 -10 16 0 20 -24 44 -44 44 -9 0 -16 5 -16 10 0 6 -30 10 -70 10
-40 0 -70 -4 -70 -10 0 -6 -43 -10 -110 -10 -67 0 -110 -4 -110 -10 0 -6 -43
-10 -110 -10 -67 0 -110 -4 -110 -10 0 -5 -9 -10 -20 -10 -13 0 -20 -7 -20
-20 0 -11 -4 -20 -10 -20 -5 0 -10 -10 -10 -22 0 -19 -2 -20 -10 -8 -7 11 -10
4 -10 -27 0 -24 -4 -43 -10 -43 -5 0 -10 -18 -10 -40 0 -22 -4 -40 -10 -40 -5
0 -10 -18 -10 -40 0 -22 -4 -40 -10 -40 -5 0 -10 -18 -10 -40 0 -22 -4 -40
-10 -40 -5 0 -10 -13 -10 -30 0 -16 -4 -30 -10 -30 -5 0 -10 -18 -10 -40 0
-22 -4 -40 -10 -40 -5 0 -10 -18 -10 -40 0 -22 -4 -40 -10 -40 -5 0 -10 -18
-10 -40 0 -22 -4 -40 -10 -40 -5 0 -10 -18 -10 -40 0 -22 -4 -40 -10 -40 -5 0
-10 -18 -10 -40 0 -22 -4 -40 -10 -40 -5 0 -10 -13 -10 -30 0 -16 -4 -30 -10
-30 -5 0 -10 -18 -10 -40 0 -22 -4 -40 -10 -40 -5 0 -10 18 -10 40 0 22 -4 40
-10 40 -5 0 -10 7 -10 16 0 20 -24 44 -44 44 -9 0 -16 5 -16 10 0 6 -30 10
-70 10 -40 0 -70 -4 -70 -10 0 -5 -11 -10 -25 -10 -29 0 -75 40 -75 65 0 8 -4
15 -10 15 -5 0 -10 25 -10 55 0 50 3 59 35 90 21 22 44 35 60 35 14 0 25 5 25
10 0 6 27 10 60 10 33 0 60 4 60 10 0 6 9 10 20 10 13 0 20 7 20 20 0 11 5 20
10 20 6 0 10 14 10 30 0 17 5 30 10 30 6 0 10 18 10 40 0 22 5 40 10 40 6 0
10 9 10 20 0 11 5 20 10 20 6 0 10 14 10 30 0 17 5 30 10 30 6 0 10 23 10 50
0 28 5 50 10 50 6 0 10 23 10 50 0 28 -4 50 -10 50 -5 0 -10 7 -10 15 0 20
-45 65 -65 65 -8 0 -15 5 -15 10 0 6 -13 10 -30 10 -16 0 -30 5 -30 10 0 6
-63 10 -170 10 -107 0 -170 -4 -170 -10 0 -5 -13 -10 -30 -10 -16 0 -30 -4
-30 -10 0 -5 -9 -10 -20 -10 -11 0 -20 -4 -20 -10 0 -5 -9 -10 -20 -10 -11 0
-20 -4 -20 -10 0 -5 -7 -10 -16 -10 -8 0 -33 -18 -54 -40 -21 -22 -44 -40 -50
-40 -15 0 -40 -25 -40 -40 0 -11 -64 -80 -75 -80 -3 0 -5 45 -5 100 0 60 -4
100 -10 100 -5 0 -10 7 -10 15 0 9 -11 27 -25 40 -24 25 -27 25 -200 25 -110
0 -175 -4 -175 -10 0 -6 -35 -10 -86 -10 -83 0 -87 -1 -115 -31 l-29 -31 -39
41 -39 41 -262 0 -262 0 -28 -30 c-26 -28 -60 -33 -60 -8 0 5 -11 20 -25 33
-21 22 -33 25 -90 25 -37 0 -65 -4 -65 -10 0 -5 -9 -10 -20 -10 -11 0 -20 -4
-20 -10 0 -5 -13 -10 -30 -10 -16 0 -30 -4 -30 -10 0 -5 -9 -10 -20 -10 -11 0
-20 -4 -20 -10 0 -5 -18 -10 -40 -10 -22 0 -40 -4 -40 -10 0 -5 -9 -10 -20
-10 -11 0 -20 -4 -20 -10 0 -15 -29 -12 -46 4 -8 8 -14 22 -14 30 0 9 -8 16
-20 16 -11 0 -20 5 -20 10 0 6 -57 10 -150 10 -93 0 -150 4 -150 10 0 6 -99
10 -276 10 l-276 0 -31 -32 c-19 -21 -32 -28 -34 -20 -3 6 -18 12 -34 12 -16
0 -29 5 -29 10 0 15 -97 12 -104 -2 -5 -10 -7 -10 -12 0 -4 8 -37 12 -115 12
-66 0 -109 4 -109 10 0 6 -38 10 -95 10 -88 0 -98 -2 -120 -25 -14 -13 -25
-31 -25 -40 0 -8 -4 -15 -10 -15 -5 0 -10 -13 -10 -30 0 -16 -4 -30 -10 -30
-5 0 -10 -13 -10 -30 0 -16 -4 -30 -10 -30 -5 0 -10 -13 -10 -30 0 -23 -4 -30
-20 -30 -17 0 -20 7 -20 40 0 22 -4 40 -10 40 -5 0 -10 14 -10 30 0 17 -4 30
-10 30 -5 0 -10 9 -10 20 0 11 -4 20 -10 20 -5 0 -10 7 -10 15 0 20 -45 65
-65 65 -8 0 -15 5 -15 10 0 6 -30 10 -70 10 -40 0 -70 -4 -70 -10 0 -6 -60
-10 -160 -10 -100 0 -160 -4 -160 -10 0 -5 -20 -10 -45 -10 -39 0 -51 -5 -80
-35 l-35 -34 0 -96 c0 -57 -4 -95 -10 -95 -6 0 -10 -50 -10 -130 0 -80 -4
-130 -10 -130 -6 0 -10 -33 -10 -80 0 -47 -4 -80 -10 -80 -6 0 -10 -30 -10
-70 0 -40 -4 -70 -10 -70 -6 0 -10 -30 -10 -70 0 -40 -4 -70 -10 -70 -6 0 -10
-30 -10 -70 0 -40 -4 -70 -10 -70 -5 0 -10 -22 -10 -50 0 -27 -4 -50 -10 -50
-6 0 -10 -30 -10 -70 0 -40 -4 -70 -10 -70 -5 0 -10 -20 -10 -45 0 -39 5 -51
35 -80 19 -19 41 -35 50 -35 8 0 15 -4 15 -10 0 -5 9 -10 20 -10 11 0 20 5 20
10 0 6 23 10 50 10 28 0 50 5 50 10 0 6 67 10 180 10 113 0 180 4 180 10 0 6
9 10 19 10 11 0 21 6 24 13 2 7 20 -5 45 -30 l40 -43 166 0 c104 0 166 4 166
10 0 6 8 10 18 10 10 0 24 9 32 20 15 21 50 28 50 10 0 -5 9 -10 20 -10 11 0
20 -4 20 -10 0 -6 29 -10 68 -10 l68 0 3 -46 c2 -39 -2 -49 -29 -74 -16 -15
-30 -35 -30 -44 0 -9 -4 -16 -10 -16 -6 0 -10 -80 -10 -220 0 -140 -4 -220
-10 -220 -5 0 -10 -13 -10 -30 0 -16 5 -30 10 -30 6 0 10 -18 10 -40 0 -22 -4
-40 -10 -40 -5 0 -10 -22 -10 -50 0 -43 -3 -50 -20 -50 -13 0 -20 7 -20 20 0
11 -4 20 -10 20 -5 0 -10 14 -10 30 0 17 -4 30 -10 30 -6 0 -10 53 -10 140 0
87 -4 140 -10 140 -5 0 -10 14 -10 30 0 17 -4 30 -10 30 -5 0 -10 9 -10 20 0
13 -7 20 -20 20 -11 0 -20 5 -20 10 0 6 -13 10 -28 10 -16 0 -34 8 -42 20 -8
11 -26 20 -41 20 -15 0 -30 6 -33 13 -5 10 -7 10 -12 0 -3 -7 -14 -13 -25 -13
-10 0 -19 -4 -19 -10 0 -5 -7 -10 -16 -10 -20 0 -44 -24 -44 -44 0 -9 -4 -16
-10 -16 -5 0 -10 -13 -10 -30 0 -16 -4 -30 -10 -30 -6 0 -10 -80 -10 -220 0
-140 4 -220 10 -220 6 0 10 -18 10 -40 0 -22 5 -40 10 -40 6 0 10 -25 10 -56
0 -54 1 -56 60 -114 33 -32 60 -66 60 -74 0 -11 10 -16 30 -16 17 0 30 -4 30
-10 0 -5 9 -10 20 -10 11 0 20 -4 20 -10 0 -5 9 -10 20 -10 11 0 20 -4 20 -10
0 -5 9 -10 20 -10 11 0 20 -4 20 -10 0 -5 9 -10 20 -10 11 0 20 -4 20 -10 0
-5 7 -10 16 -10 39 0 44 -22 44 -194 0 -104 -4 -166 -10 -166 -6 0 -10 -43
-10 -110 l0 -110 -100 0 c-60 0 -100 -4 -100 -10 0 -6 -37 -10 -90 -10 -53 0
-90 -4 -90 -10 0 -5 -22 -10 -50 -10 l-50 0 0 -66 c0 -43 5 -70 14 -80 17 -16
66 -19 66 -4 0 6 23 10 50 10 28 0 50 5 50 10 0 6 100 10 280 10 180 0 280 -4
280 -10 0 -6 37 -10 90 -10 53 0 90 -4 90 -10 0 -6 30 -10 70 -10 40 0 70 -4
70 -10 0 -6 27 -10 60 -10 33 0 60 -4 60 -10 0 -6 27 -10 60 -10 33 0 60 -4
60 -10 0 -5 23 -10 50 -10 28 0 50 -4 50 -10 0 -15 29 -12 46 4 8 8 14 26 14
40 0 14 5 26 10 26 6 0 10 14 10 30 0 23 -4 30 -20 30 -11 0 -20 5 -20 10 0 6
-9 10 -20 10 -11 0 -20 5 -20 10 0 6 -13 10 -30 10 -16 0 -30 5 -30 10 0 6
-13 10 -30 10 -16 0 -30 5 -30 10 0 6 -18 10 -40 10 -22 0 -40 5 -40 10 0 6
-22 10 -50 10 -27 0 -50 5 -50 10 0 6 -25 10 -56 10 -35 0 -61 5 -70 14 -11
12 -14 57 -14 236 0 231 3 250 44 250 9 0 16 5 16 10 0 6 13 10 28 10 16 0 34
8 42 20 8 11 20 20 28 20 7 0 44 32 82 70 38 39 76 70 85 70 8 0 15 7 15 16 0
9 14 29 30 44 17 15 30 35 30 44 0 9 5 16 10 16 6 0 10 9 10 20 0 11 5 20 10
20 6 0 10 9 10 20 0 11 5 20 10 20 6 0 10 14 10 30 0 17 5 30 10 30 6 0 10 14
10 30 0 17 5 30 10 30 6 0 10 23 10 50 0 28 5 50 10 50 6 0 10 23 10 50 0 28
-4 50 -10 50 -5 0 -10 23 -10 50 0 28 -4 50 -10 50 -5 0 -10 7 -10 16 0 8 -18
33 -40 54 -34 33 -40 45 -40 80 0 30 -6 47 -25 65 -21 22 -33 25 -100 25 -43
0 -75 -4 -75 -10 0 -5 -9 -10 -20 -10 -13 0 -20 -7 -20 -20 0 -11 -4 -20 -10
-20 -5 0 -10 -9 -10 -20 0 -11 -4 -20 -10 -20 -5 0 -10 -13 -10 -30 0 -16 -4
-30 -10 -30 -5 0 -10 -18 -10 -40 0 -22 -4 -40 -10 -40 -5 0 -10 -18 -10 -40
0 -22 -4 -40 -10 -40 -5 0 -10 -22 -10 -50 0 -27 -4 -50 -10 -50 -5 0 -10 -22
-10 -50 0 -27 -4 -50 -10 -50 -5 0 -10 -13 -10 -30 0 -16 -4 -30 -10 -30 -6 0
-10 127 -10 360 0 233 4 360 10 360 6 0 10 18 10 40 0 22 -4 40 -10 40 -5 0
-10 18 -10 40 0 22 -4 40 -10 40 -5 0 -10 8 -10 18 0 10 -9 24 -20 32 -30 22
-24 30 20 30 22 0 40 5 40 10 0 6 37 10 90 10 53 0 90 4 90 10 0 6 37 10 90
10 53 0 90 -4 90 -10 0 -6 77 -10 210 -10 133 0 210 4 210 10 0 6 9 10 20 10
11 0 20 5 20 10 0 6 5 10 10 10 6 0 10 -7 10 -16 0 -20 24 -44 44 -44 9 0 16
-4 16 -10 0 -5 18 -10 40 -10 22 0 40 5 40 10 0 6 18 10 40 10 22 0 40 5 40
10 0 6 18 10 40 10 22 0 40 5 40 10 0 6 23 10 50 10 28 0 50 5 50 10 0 6 41
10 107 9 70 0 109 3 111 10 2 6 12 11 23 11 12 0 19 7 19 20 0 11 5 20 10 20
6 0 10 9 10 20 0 11 5 20 10 20 6 0 10 -9 10 -20 0 -11 5 -20 10 -20 6 0 10
-9 10 -20 0 -11 5 -20 10 -20 6 0 10 -7 10 -15 0 -9 16 -31 35 -50 29 -30 41
-35 80 -35 25 0 45 5 45 10 0 6 18 10 40 10 22 0 40 5 40 10 0 6 14 10 30 10
17 0 30 5 30 10 0 6 14 10 30 10 17 0 30 5 30 10 0 6 14 10 30 10 17 0 30 5
30 10 0 6 9 10 20 10 11 0 20 5 20 10 0 15 29 12 46 -4 8 -8 14 -22 14 -30 0
-9 5 -16 10 -16 6 0 10 -7 10 -16 0 -23 25 -44 53 -44 14 0 28 -6 31 -12 5
-10 7 -10 12 0 3 6 23 12 45 12 21 0 39 5 39 10 0 6 14 10 30 10 17 0 30 5 30
10 0 6 53 10 140 10 87 0 140 4 140 10 0 6 11 10 25 10 29 0 75 40 75 65 0 8
5 15 10 15 6 0 10 33 10 80 0 44 2 80 5 80 10 0 55 -49 55 -60 0 -14 66 -80
81 -80 6 0 24 -13 39 -30 15 -16 35 -30 44 -30 9 0 16 -4 16 -10 0 -5 9 -10
20 -10 11 0 20 -4 20 -10 0 -5 14 -10 30 -10 17 0 30 -4 30 -10 0 -5 18 -10
40 -10 22 0 40 -4 40 -10 0 -6 37 -10 90 -10 53 0 90 4 90 10 0 6 18 10 40 10
22 0 40 5 40 10 0 6 14 10 30 10 17 0 30 5 30 10 0 6 14 10 30 10 17 0 30 -4
30 -10 0 -6 50 -10 130 -10 80 0 130 4 130 10 0 6 49 10 126 10 l126 0 28 30
c24 26 35 30 80 30 50 0 80 -15 80 -40 0 -19 27 -40 53 -40 14 0 28 -6 31 -12
5 -10 7 -10 12 0 4 8 31 12 85 12 46 0 79 4 79 10 0 6 33 10 80 10 47 0 80 4
80 10 0 6 18 10 39 10 22 0 41 5 44 13 3 8 11 5 24 -10 18 -21 30 -23 107 -23
51 0 86 4 86 10 0 6 14 10 30 10 17 0 30 5 30 10 0 6 30 10 70 10 40 0 70 4
70 10 0 6 28 10 65 10 62 0 68 2 100 35 19 19 35 41 35 50 0 8 3 15 6 15 11 0
34 -29 34 -42 0 -8 9 -20 20 -28 11 -8 20 -22 20 -32 0 -10 5 -18 10 -18 6 0
10 -9 10 -20 0 -11 5 -20 10 -20 6 0 10 -7 10 -16 0 -20 24 -44 44 -44 9 0 16
-4 16 -10 0 -6 80 -10 220 -10 140 0 220 4 220 10 0 6 7 10 15 10 9 0 31 16
50 35 l35 34 0 696 c0 457 -3 695 -10 695 -5 0 -10 9 -10 20 0 11 -4 20 -10
20 -5 0 -10 5 -10 10 0 6 9 10 20 10 11 0 20 5 20 10 0 6 9 10 20 10 11 0 20
5 20 10 0 6 9 10 20 10 11 0 20 5 20 10 0 6 9 10 20 10 11 0 20 5 20 10 0 6 9
10 20 10 11 0 20 5 20 10 0 6 9 10 20 10 11 0 20 5 20 10 0 18 35 11 50 -10 8
-11 20 -20 28 -20 7 0 35 -22 62 -50 27 -27 55 -50 62 -50 8 0 20 -9 28 -20 8
-11 22 -20 32 -20 10 0 18 -4 18 -10 0 -5 9 -10 20 -10 20 0 20 -7 20 -620 0
-407 -3 -620 -10 -620 -14 0 -12 -38 2 -42 9 -3 8 -9 -4 -21 -11 -12 -34 -17
-72 -17 -31 0 -56 -4 -56 -10 0 -5 -18 -10 -40 -10 -22 0 -40 -4 -40 -10 0 -5
-18 -10 -40 -10 -22 0 -40 -4 -40 -10 0 -5 -18 -10 -40 -10 -22 0 -40 -4 -40
-10 0 -5 -13 -10 -30 -10 -16 0 -30 -4 -30 -8 0 -4 -12 -9 -27 -10 -16 -1 -29
-7 -31 -12 -2 -6 -12 -10 -23 -10 -10 0 -19 -4 -19 -10 0 -5 -9 -10 -20 -10
-11 0 -20 -4 -20 -10 0 -5 -9 -10 -20 -10 -11 0 -20 -4 -20 -10 0 -5 -7 -10
-15 -10 -19 0 -165 -144 -165 -163 0 -7 -9 -19 -20 -27 -11 -8 -20 -22 -20
-32 0 -10 -4 -18 -10 -18 -5 0 -10 -13 -10 -30 0 -16 -4 -30 -10 -30 -5 0 -10
-18 -10 -40 0 -22 -4 -40 -10 -40 -6 0 -10 -43 -10 -110 0 -67 4 -110 10 -110
6 0 10 -18 10 -40 0 -22 5 -40 10 -40 6 0 10 -18 10 -40 0 -22 5 -40 10 -40 6
0 10 -9 10 -20 0 -11 5 -20 10 -20 6 0 10 -9 10 -20 0 -11 5 -20 10 -20 6 0
10 -9 10 -20 0 -11 5 -20 10 -20 6 0 10 -13 10 -30 0 -16 5 -30 10 -30 6 0 10
-22 10 -50 0 -27 5 -50 10 -50 6 0 10 -33 10 -80 0 -47 -4 -80 -10 -80 -5 0
-10 -22 -10 -50 0 -27 -4 -50 -10 -50 -5 0 -10 -13 -10 -30 0 -16 -4 -30 -10
-30 -5 0 -10 -8 -10 -18 0 -10 -9 -24 -20 -32 -11 -8 -20 -21 -20 -28 0 -8
-13 -27 -30 -42 -16 -15 -30 -34 -30 -42 0 -7 -9 -20 -20 -28 -11 -8 -20 -22
-20 -32 0 -10 -4 -18 -10 -18 -5 0 -10 -9 -10 -20 0 -11 -4 -20 -10 -20 -5 0
-10 -9 -10 -20 0 -11 -4 -20 -10 -20 -5 0 -10 -9 -10 -20 0 -11 -4 -20 -10
-20 -5 0 -10 -9 -10 -20 0 -11 -4 -20 -10 -20 -5 0 -10 -9 -10 -20 0 -11 -4
-20 -10 -20 -5 0 -10 -9 -10 -20 0 -11 -4 -20 -10 -20 -5 0 -10 -13 -10 -30 0
-16 -4 -30 -10 -30 -5 0 -10 -13 -10 -30 0 -16 -4 -30 -10 -30 -5 0 -10 -18
-10 -40 0 -22 -4 -40 -10 -40 -6 0 -10 -67 -10 -180 0 -113 4 -180 10 -180 6
0 10 -18 10 -40 0 -22 5 -40 10 -40 6 0 10 -13 10 -30 0 -16 5 -30 10 -30 6 0
10 -9 10 -20 0 -11 5 -20 10 -20 6 0 10 -13 10 -28 0 -16 8 -34 20 -42 11 -8
20 -21 20 -28 0 -8 14 -27 30 -42 17 -15 30 -33 30 -39 0 -15 86 -101 101
-101 6 0 24 -13 39 -30 15 -16 35 -30 44 -30 9 0 16 -4 16 -10 0 -5 8 -10 18
-10 10 0 24 -9 32 -20 8 -11 22 -20 32 -20 10 0 18 -4 18 -10 0 -5 14 -10 30
-10 17 0 30 -4 30 -10 0 -5 9 -10 20 -10 11 0 20 -4 20 -10 0 -5 23 -10 50
-10 28 0 50 -4 50 -10 0 -6 27 -10 60 -10 33 0 60 -4 60 -10 0 -6 27 -10 60
-10 33 0 60 -4 60 -10 0 -6 33 -10 80 -10 47 0 80 -4 80 -10 0 -6 43 -10 110
-10 67 0 110 -4 110 -10 0 -6 70 -10 190 -10 120 0 190 4 190 10 0 6 45 10
115 10 70 0 115 4 115 10 0 6 27 10 60 10 33 0 60 4 60 10 0 6 14 10 30 10 17
0 30 5 30 10 0 6 14 10 30 10 17 0 30 5 30 10 0 6 14 10 30 10 17 0 30 5 30
10 0 6 9 10 20 10 11 0 20 5 20 10 0 6 9 10 20 10 11 0 20 5 20 10 0 6 9 10
20 10 11 0 20 5 20 10 0 6 9 10 20 10 11 0 20 5 20 10 0 6 12 10 26 10 17 0
39 14 64 40 21 22 43 40 49 40 16 0 201 187 201 203 0 7 9 19 20 27 12 8 20
26 20 42 0 15 5 28 10 28 6 0 10 9 10 20 0 11 5 20 10 20 6 0 10 14 10 30 0
17 5 30 10 30 6 0 10 18 10 40 0 22 5 40 10 40 6 0 10 57 10 150 0 93 -4 150
-10 150 -5 0 -10 18 -10 40 0 22 -4 40 -10 40 -5 0 -10 18 -10 40 0 22 -4 40
-10 40 -5 0 -10 14 -10 30 0 17 -4 30 -10 30 -5 0 -10 9 -10 20 0 11 -4 20
-10 20 -5 0 -10 9 -10 20 0 11 -4 20 -10 20 -5 0 -10 14 -10 30 0 17 -4 30
-10 30 -5 0 -10 8 -10 18 0 10 -9 24 -20 32 -11 8 -20 21 -20 30 0 9 -9 22
-20 30 -11 8 -20 21 -20 28 0 8 -13 27 -30 42 -16 15 -30 34 -30 42 0 7 -9 20
-20 28 -11 8 -20 22 -20 32 0 10 -4 18 -10 18 -5 0 -10 9 -10 20 0 11 -4 20
-10 20 -5 0 -10 14 -10 30 0 17 -4 30 -10 30 -5 0 -10 14 -10 30 0 17 -4 30
-10 30 -5 0 -10 14 -10 30 0 17 -4 30 -10 30 -6 0 -10 43 -10 110 0 67 4 110
10 110 6 0 10 13 10 28 0 16 8 34 20 42 11 8 20 21 20 30 0 9 9 22 20 30 11 8
20 22 20 32 0 10 5 18 10 18 6 0 10 14 10 30 0 17 5 30 10 30 6 0 10 14 10 30
0 17 5 30 10 30 6 0 10 53 10 140 0 87 -4 140 -10 140 -5 0 -10 14 -10 30 0
17 -4 30 -10 30 -5 0 -10 9 -10 20 0 11 -4 20 -10 20 -5 0 -10 8 -10 18 0 10
-9 24 -20 32 -11 8 -20 20 -20 28 0 7 -27 40 -60 72 -33 32 -60 64 -60 70 0
14 -46 60 -60 60 -11 0 -60 45 -60 55 0 3 9 5 20 5 11 0 20 -4 20 -10 0 -6 33
-10 80 -10 47 0 80 -4 80 -10 0 -5 18 -10 40 -10 22 0 40 5 40 10 0 6 13 10
28 10 16 0 34 8 42 20 15 21 50 28 50 10 0 -6 27 -10 60 -10 33 0 60 4 60 10
0 6 18 10 40 10 22 0 40 5 40 10 0 6 14 10 30 10 17 0 30 5 30 10 0 6 14 10
30 10 17 0 30 5 30 10 0 6 9 10 20 10 11 0 20 -7 20 -15 0 -9 16 -31 35 -50
34 -34 36 -35 120 -35 50 0 85 4 85 10 0 6 43 10 110 10 67 0 110 -4 110 -10
0 -6 58 -10 155 -10 l156 0 34 35 c27 26 35 43 35 70 0 19 5 35 10 35 6 0 10
18 10 40 0 22 3 40 6 40 11 0 34 -29 34 -44 0 -9 5 -16 10 -16 6 0 10 -8 10
-18 0 -10 9 -24 20 -32 11 -8 20 -20 20 -27 0 -8 20 -34 45 -58 40 -40 49 -45
90 -45 25 0 45 5 45 10 0 6 7 10 15 10 19 0 125 104 125 123 0 7 9 19 20 27
11 8 20 21 20 30 0 9 9 22 20 30 11 8 20 22 20 32 0 10 5 18 10 18 6 0 10 8
10 18 0 10 9 24 20 32 11 8 20 22 20 32 0 10 5 18 10 18 6 0 10 9 10 20 0 11
5 20 10 20 6 0 10 9 10 20 0 11 5 20 10 20 6 0 10 18 10 40 0 22 5 40 10 40 6
0 10 60 10 160 0 100 -4 160 -10 160 -6 0 -10 27 -10 60 0 33 4 60 10 60 6 0
10 9 10 20 0 11 5 20 10 20 6 0 10 7 10 16 0 15 23 44 34 44 3 0 6 -27 6 -60
0 -33 4 -60 10 -60 6 0 10 -7 10 -15 0 -9 11 -27 25 -40 20 -21 34 -25 80 -25
l55 0 0 -385 0 -386 35 -34 34 -35 106 0 c63 0 105 -4 105 -10 0 -6 43 -10
110 -10 67 0 110 4 110 10 0 6 9 10 20 10 13 0 20 7 20 20 0 11 5 20 10 20 6
0 10 60 10 159 0 118 3 161 13 165 10 5 10 7 0 12 -16 7 -19 364 -3 364 6 0
10 9 10 20 0 11 -4 20 -10 20 -15 0 -12 29 4 46 10 9 36 14 76 14 56 0 63 3
95 35 34 33 35 37 35 110 0 43 -4 75 -10 75 -6 0 -10 40 -10 100 0 60 -4 100
-10 100 -6 0 -10 28 -10 65 0 62 -2 68 -35 100 -31 32 -40 35 -90 35 -35 0
-54 4 -50 10 4 7 -62 10 -189 10 -124 0 -196 -4 -196 -10 0 -5 -18 -10 -40
-10 -22 0 -40 5 -40 10 0 6 -47 10 -120 10 -73 0 -120 -4 -120 -10 0 -5 -9
-10 -20 -10 -11 0 -20 -4 -20 -10 0 -5 -9 -10 -20 -10 -13 0 -20 7 -20 20 0
11 -4 20 -10 20 -5 0 -10 9 -10 20 0 13 7 20 20 20 11 0 20 5 20 10 0 6 18 10
40 10 22 0 40 5 40 10 0 6 18 10 40 10 22 0 40 5 40 10 0 6 23 10 50 10 28 0
50 5 50 10 0 6 18 10 40 10 22 0 40 5 40 10 0 6 18 10 40 10 22 0 40 5 40 10
0 6 18 10 40 10 22 0 40 5 40 10 0 6 18 10 40 10 22 0 40 5 40 10 0 6 18 10
40 10 22 0 40 5 40 10 0 6 18 10 40 10 22 0 40 5 40 10 0 6 18 10 40 10 22 0
40 5 40 10 0 6 23 10 50 10 28 0 50 5 50 10 0 6 9 10 20 10 11 0 20 -4 20 -10
0 -5 18 -10 40 -10 22 0 40 -4 40 -10 0 -5 14 -10 30 -10 17 0 30 -4 30 -10 0
-5 18 -10 40 -10 22 0 40 -4 40 -10 0 -5 14 -10 30 -10 17 0 30 -4 30 -10 0
-5 18 -10 40 -10 22 0 40 -4 40 -10 0 -5 14 -10 30 -10 17 0 30 -4 30 -10 0
-5 14 -10 30 -10 17 0 30 -4 30 -10 0 -5 18 -10 40 -10 22 0 40 -4 40 -10 0
-5 18 -10 40 -10 22 0 40 -4 40 -10 0 -5 14 -10 30 -10 17 0 30 -4 30 -10 0
-5 18 -10 40 -10 22 0 40 -4 40 -10 0 -5 14 -10 30 -10 17 0 30 -4 30 -10 0
-5 14 -10 30 -10 17 0 30 5 30 10 0 6 9 10 20 10 11 0 20 5 20 10 0 6 9 10 20
10 16 0 20 7 20 30 0 17 5 30 10 30 6 0 10 16 10 35 0 29 -9 44 -45 80 -24 25
-51 45 -60 45 -8 0 -15 5 -15 10 0 6 -9 10 -20 10 -11 0 -20 5 -20 10 0 6 -8
10 -18 10 -10 0 -24 9 -32 20 -8 11 -22 20 -32 20 -10 0 -18 5 -18 10 0 6 -9
10 -20 10 -11 0 -20 5 -20 10 0 6 -8 10 -18 10 -10 0 -24 9 -32 20 -8 11 -22
20 -32 20 -10 0 -18 5 -18 10 0 6 -8 10 -18 10 -10 0 -24 9 -32 20 -8 11 -22
20 -32 20 -10 0 -18 5 -18 10 0 6 -8 10 -18 10 -10 0 -24 9 -32 20 -8 11 -22
20 -32 20 -10 0 -18 5 -18 10 0 6 -9 10 -20 10 -11 0 -20 5 -20 10 0 6 -7 10
-16 10 -9 0 -25 10 -35 22 -11 12 -19 16 -19 8 0 -8 -8 -4 -19 8 -10 12 -24
22 -30 22 -13 0 -41 24 -41 34 0 3 9 6 20 6 11 0 20 -4 20 -10 0 -5 14 -10 30
-10 17 0 30 -4 30 -10 0 -5 18 -10 40 -10 22 0 40 -4 40 -10 0 -5 23 -10 50
-10 28 0 50 5 50 10 0 6 9 10 20 10 11 0 20 5 20 10 0 6 14 10 30 10 17 0 30
-4 30 -10 0 -5 18 -10 40 -10 22 0 40 -4 40 -10 0 -5 11 -10 25 -10 31 0 69
-36 73 -69 4 -28 44 -71 67 -71 8 0 15 -4 15 -10 0 -5 23 -10 50 -10 28 0 50
-4 50 -10 0 -6 27 -10 60 -10 33 0 60 -4 60 -10 0 -5 23 -10 50 -10 28 0 50
-4 50 -10 0 -6 27 -10 60 -10 33 0 60 -4 60 -10 0 -5 25 -10 55 -10 50 0 59 3
90 35 27 26 35 43 35 70 0 19 5 35 10 35 6 0 10 -8 10 -18 0 -10 9 -24 20 -32
12 -8 20 -26 20 -42 0 -15 5 -28 10 -28 6 0 10 -13 10 -30 0 -16 5 -30 10 -30
6 0 10 -13 10 -30 0 -16 5 -30 10 -30 6 0 10 -9 10 -20 0 -11 5 -20 10 -20 6
0 10 -7 10 -15 0 -20 45 -65 65 -65 8 0 15 -4 15 -10 0 -5 18 -10 40 -10 22 0
40 5 40 10 0 6 18 10 40 10 22 0 40 5 40 10 0 6 9 10 20 10 11 0 20 5 20 10 0
6 13 10 28 10 16 0 34 8 42 20 8 11 22 20 32 20 10 0 18 5 18 10 0 6 9 10 20
10 11 0 20 5 20 10 0 6 9 10 20 10 11 0 20 5 20 10 0 6 9 10 20 10 11 0 20 5
20 10 0 6 9 10 20 10 11 0 20 5 20 10 0 6 8 10 18 10 10 0 24 9 32 20 8 11 21
20 30 20 9 0 22 9 30 20 8 11 20 20 28 20 17 0 62 45 62 62 0 8 9 20 20 28 11
8 20 22 20 32 0 10 5 18 10 18 6 0 10 9 10 20 0 11 5 20 10 20 6 0 10 9 10 20
0 11 5 20 10 20 6 0 10 14 10 30 0 17 5 30 10 30 6 0 10 18 10 40 0 22 5 40
10 40 6 0 10 23 10 50 0 28 5 50 10 50 6 0 10 7 10 16 0 20 24 44 44 44 9 0
16 5 16 10 0 6 14 10 30 10 17 0 30 5 30 10 0 6 18 10 40 10 22 0 40 5 40 10
0 6 23 10 50 10 28 0 50 5 50 10 0 6 9 10 20 10 13 0 20 7 20 18 0 10 9 24 20
32 21 15 28 70 10 70 -5 0 -10 23 -10 50 0 28 -4 50 -10 50 -5 0 -10 14 -10
30 0 17 -4 30 -10 30 -5 0 -10 9 -10 20 0 11 -4 20 -10 20 -5 0 -10 18 -10 40
0 22 -4 40 -10 40 -5 0 -10 18 -10 40 0 22 -4 40 -10 40 -5 0 -10 18 -10 40 0
22 -4 40 -10 40 -5 0 -10 11 -10 25 0 40 -61 95 -105 95 -19 0 -35 -4 -35 -10
0 -5 -18 -10 -40 -10 -22 0 -40 -4 -40 -10 0 -5 -18 -10 -40 -10 -22 0 -40 -4
-40 -10 0 -5 -18 -10 -40 -10 -22 0 -40 -4 -40 -10 0 -5 -13 -10 -30 -10 -16
0 -30 -4 -30 -10 0 -5 -13 -10 -30 -10 -16 0 -30 -4 -30 -10 0 -5 -13 -10 -28
-10 -16 0 -34 -8 -42 -20 -8 -11 -21 -20 -30 -20 -9 0 -22 -9 -30 -20 -8 -11
-20 -20 -27 -20 -17 0 -103 -86 -103 -103 0 -7 -9 -19 -20 -27 -11 -8 -20 -22
-20 -32 0 -10 -4 -18 -10 -18 -5 0 -10 -13 -10 -30 0 -16 -4 -30 -10 -30 -6 0
-10 -27 -10 -60 0 -33 -4 -60 -10 -60 -5 0 -10 -18 -10 -40 0 -22 -4 -40 -10
-40 -5 0 -10 -9 -10 -20 0 -11 -4 -20 -10 -20 -5 0 -10 -7 -10 -15 0 -18 -64
-85 -81 -85 -6 0 -24 -13 -39 -30 -15 -16 -35 -30 -44 -30 -9 0 -16 -4 -16
-10 0 -5 -8 -10 -18 -10 -10 0 -24 -9 -32 -20 -8 -11 -22 -20 -32 -20 -10 0
-18 -4 -18 -10 0 -5 -13 -10 -30 -10 -16 0 -30 -4 -30 -10 0 -5 -9 -10 -20
-10 -20 0 -20 7 -20 340 0 220 4 340 10 340 6 0 10 18 10 40 0 22 -4 40 -10
40 -5 0 -10 14 -10 30 0 17 5 30 10 30 6 0 10 18 10 40 0 22 -5 40 -10 40 -14
0 -9 172 5 183 7 6 6 10 -2 14 -7 2 -13 13 -13 24 0 10 -4 19 -10 19 -5 0 -10
9 -10 20 0 13 -7 20 -20 20 -11 0 -20 5 -20 10 0 6 -18 10 -40 10 -22 0 -40 5
-40 10 0 6 -18 10 -40 10 -22 0 -40 5 -40 10 0 6 -18 10 -40 10 -22 0 -40 5
-40 10 0 6 -18 10 -40 10 -22 0 -40 5 -40 10 0 6 -22 10 -50 10 -27 0 -50 5
-50 10 0 6 -27 10 -60 10 -33 0 -60 4 -60 10 0 6 -9 10 -20 10 -11 0 -20 5
-20 10 0 6 -27 10 -60 10 -33 0 -60 4 -60 10 0 6 -13 10 -30 10 -16 0 -30 -4
-30 -10 0 -5 -7 -10 -15 -10 -20 0 -105 -85 -105 -105 0 -8 -4 -15 -10 -15 -5
0 -10 -8 -10 -18 0 -10 -9 -24 -20 -32 -11 -8 -20 -22 -20 -32 0 -10 -4 -18
-10 -18 -5 0 -10 -8 -10 -18 0 -10 -9 -24 -20 -32 -11 -8 -20 -21 -20 -30 0
-9 -9 -22 -20 -30 -11 -8 -20 -21 -20 -30 0 -9 -9 -22 -20 -30 -11 -8 -20 -21
-20 -30 0 -9 -9 -22 -20 -30 -11 -8 -20 -21 -20 -30 0 -9 -9 -22 -20 -30 -11
-8 -20 -22 -20 -32 0 -10 -4 -18 -10 -18 -5 0 -10 -8 -10 -18 0 -10 -9 -24
-20 -32 -11 -8 -20 -21 -20 -30 0 -9 -9 -22 -20 -30 -11 -8 -20 -21 -20 -30 0
-9 -9 -22 -20 -30 -11 -8 -20 -22 -20 -32 0 -10 -4 -18 -10 -18 -5 0 -10 -7
-10 -16 0 -9 -13 -29 -30 -44 -16 -15 -30 -35 -30 -44 0 -9 -4 -16 -10 -16 -5
0 -10 -8 -10 -18 0 -10 -9 -24 -20 -32 -11 -8 -20 -21 -20 -30 0 -9 -9 -22
-20 -30 -11 -8 -20 -22 -20 -32 0 -10 -3 -18 -6 -18 -14 0 -34 31 -34 54 0 14
-4 26 -10 26 -5 0 -10 14 -10 30 0 17 -4 30 -10 30 -5 0 -10 14 -10 30 0 17
-4 30 -10 30 -5 0 -10 9 -10 20 0 11 -4 20 -10 20 -5 0 -10 14 -10 30 0 17 -4
30 -10 30 -15 0 -12 29 4 46 8 8 26 14 40 14 14 0 26 5 26 10 0 6 8 10 18 10
10 0 24 9 32 20 8 11 22 20 32 20 10 0 18 7 18 16 0 9 14 29 30 44 17 16 30
38 30 52 0 13 9 30 20 38 12 8 20 26 20 42 0 15 5 28 10 28 6 0 10 18 10 40 0
22 5 40 10 40 6 0 10 50 10 130 0 80 -4 130 -10 130 -5 0 -10 14 -10 30 0 17
-4 30 -10 30 -5 0 -10 7 -10 16 0 9 -13 29 -30 44 -16 15 -30 33 -30 40 0 15
-25 40 -40 40 -7 0 -25 14 -40 30 -15 17 -35 30 -44 30 -9 0 -16 5 -16 10 0 6
-9 10 -20 10 -11 0 -20 5 -20 10 0 6 -9 10 -20 10 -11 0 -20 5 -20 10 0 6 -13
10 -30 10 -16 0 -30 5 -30 10 0 6 -18 10 -40 10 -22 0 -40 5 -40 10 0 6 -13
10 -30 10 -16 0 -30 5 -30 10 0 6 -18 10 -40 10 -22 0 -40 5 -40 10 0 6 -22
10 -50 10 -27 0 -50 5 -50 10 0 6 -30 10 -70 10 -40 0 -70 4 -70 10 0 6 -30
10 -70 10 -40 0 -70 4 -70 10 0 6 -30 10 -70 10 -40 0 -70 4 -70 10 0 6 -47
10 -120 10 -73 0 -120 -4 -120 -10 0 -5 -13 -10 -30 -10 -23 0 -30 -4 -30 -20
0 -11 -4 -20 -10 -20 -5 0 -10 -18 -10 -40 0 -22 -4 -40 -10 -40 -5 0 -10 -9
-10 -20 0 -11 -3 -20 -6 -20 -10 0 -34 28 -34 40 0 15 -107 120 -123 120 -7 0
-19 9 -27 20 -8 12 -26 20 -42 20 -15 0 -28 5 -28 10 0 6 -9 10 -20 10 -11 0
-20 5 -20 10 0 6 -18 10 -40 10 -22 0 -40 5 -40 10 0 6 -18 10 -40 10 -22 0
-40 5 -40 10 0 6 -33 10 -80 10 -47 0 -80 4 -80 10 0 6 -47 10 -120 10 -89 0
-120 3 -120 13 0 8 -4 7 -10 -3 -6 -10 -10 -11 -10 -2 0 9 -55 12 -240 12
-153 0 -240 -4 -240 -10 0 -5 -7 -10 -15 -10 -20 0 -65 -45 -65 -65 0 -8 -4
-15 -10 -15 -6 0 -10 -63 -10 -170 0 -107 -4 -170 -10 -170 -6 0 -10 -80 -10
-220 0 -140 -4 -220 -10 -220 -6 0 -10 -33 -10 -80 0 -47 -4 -80 -10 -80 -5 0
-10 14 -10 30 0 17 -4 30 -10 30 -5 0 -10 18 -10 40 0 22 -4 40 -10 40 -5 0
-10 18 -10 40 0 22 -4 40 -10 40 -5 0 -10 14 -10 30 0 17 -4 30 -10 30 -5 0
-10 18 -10 40 0 22 -4 40 -10 40 -5 0 -10 14 -10 30 0 17 -4 30 -10 30 -5 0
-10 18 -10 40 0 22 -4 40 -10 40 -5 0 -10 14 -10 30 0 17 -4 30 -10 30 -5 0
-10 14 -10 30 0 17 -4 30 -10 30 -5 0 -10 18 -10 40 0 22 -4 40 -10 40 -5 0
-10 14 -10 30 0 17 -4 30 -10 30 -5 0 -10 14 -10 30 0 17 -4 30 -10 30 -5 0
-10 18 -10 40 0 22 -4 40 -10 40 -5 0 -10 9 -10 20 0 11 -4 20 -10 20 -5 0
-10 16 -10 35 0 27 -8 44 -35 70 l-34 35 -186 0 c-117 0 -185 -4 -185 -10z"/>
<path d="M16670 12940 c0 -6 -37 -10 -90 -10 -53 0 -90 -4 -90 -10 0 -5 -18
-10 -40 -10 -22 0 -40 -4 -40 -10 0 -5 -18 -10 -40 -10 -32 0 -40 -4 -40 -18
0 -10 -9 -24 -20 -32 -19 -14 -20 -26 -20 -302 0 -185 -4 -288 -10 -288 -5 0
-10 23 -10 50 0 28 -4 50 -10 50 -5 0 -10 23 -10 50 0 28 -4 50 -10 50 -5 0
-10 18 -10 40 0 22 -4 40 -10 40 -5 0 -10 18 -10 40 0 22 -4 40 -10 40 -5 0
-10 23 -10 50 0 28 -4 50 -10 50 -5 0 -10 23 -10 50 0 28 -4 50 -10 50 -5 0
-10 11 -10 25 0 29 -40 75 -65 75 -8 0 -15 5 -15 10 0 6 -33 10 -80 10 -47 0
-80 -4 -80 -10 0 -6 -37 -10 -90 -10 -53 0 -90 -4 -90 -10 0 -6 -37 -10 -90
-10 -53 0 -90 -4 -90 -10 0 -5 -7 -10 -16 -10 -20 0 -44 -24 -44 -44 0 -9 -4
-16 -10 -16 -5 0 -10 -13 -10 -29 0 -17 -4 -33 -10 -36 -5 -3 -10 -26 -10 -51
0 -24 -4 -44 -10 -44 -5 0 -10 -18 -10 -40 0 -22 -4 -40 -10 -40 -5 0 -10 -18
-10 -40 0 -22 -4 -40 -10 -40 -5 0 -10 -18 -10 -40 0 -22 -4 -40 -10 -40 -5 0
-10 -22 -10 -50 0 -27 -4 -50 -10 -50 -5 0 -10 -18 -10 -40 0 -22 -4 -40 -10
-40 -5 0 -10 -18 -10 -40 0 -22 -4 -40 -10 -40 -5 0 -10 -22 -10 -50 0 -27 -4
-50 -10 -50 -5 0 -10 -18 -10 -40 0 -22 -4 -40 -10 -40 -5 0 -10 -18 -10 -40
0 -22 -4 -40 -10 -40 -5 0 -10 -18 -10 -40 0 -22 -4 -40 -10 -40 -5 0 -10 -18
-10 -40 0 -22 -4 -40 -10 -40 -5 0 -10 -13 -10 -30 0 -16 -4 -30 -10 -30 -5 0
-10 -18 -10 -40 0 -22 -4 -40 -10 -40 -5 0 -10 -9 -10 -20 0 -11 5 -20 10 -20
6 0 10 -11 10 -25 0 -14 11 -37 25 -50 23 -24 30 -25 140 -25 70 0 115 4 115
10 0 6 45 10 116 10 116 0 116 0 144 30 22 24 36 30 70 30 40 0 70 -17 70 -40
0 -31 29 -40 134 -40 64 0 106 4 106 10 0 6 23 10 50 10 28 0 50 5 50 10 0 6
23 10 50 10 28 0 50 5 50 10 0 6 9 10 20 10 11 0 20 5 20 10 0 6 7 10 16 10
23 0 44 25 44 54 0 14 2 26 6 26 3 0 32 -27 64 -60 32 -33 66 -60 74 -60 9 0
16 -4 16 -10 0 -5 9 -10 20 -10 11 0 20 -4 20 -10 0 -5 9 -10 20 -10 11 0 20
-4 20 -10 0 -6 37 -10 90 -10 53 0 90 -4 90 -10 0 -5 18 -10 40 -10 22 0 40 5
40 10 0 6 27 10 60 10 33 0 60 4 60 10 0 6 14 10 30 10 17 0 30 5 30 10 0 6 9
10 20 10 11 0 20 5 20 10 0 6 9 10 20 10 11 0 20 5 20 10 0 6 7 10 16 10 9 0
29 14 44 30 33 35 40 37 40 10 0 -11 5 -20 10 -20 6 0 10 -7 10 -16 0 -20 24
-44 44 -44 9 0 16 -4 16 -10 0 -6 27 -10 60 -10 33 0 60 -4 60 -10 0 -6 37
-10 90 -10 53 0 90 -4 90 -10 0 -5 23 -10 50 -10 28 0 50 5 50 10 0 6 8 10 18
10 10 0 24 9 32 20 15 21 70 28 70 10 0 -6 27 -10 60 -10 33 0 60 4 60 10 0 6
9 10 20 10 11 0 20 5 20 10 0 6 18 10 40 10 22 0 40 5 40 10 0 6 14 10 30 10
17 0 30 5 30 10 0 15 49 12 66 -4 8 -8 14 -22 14 -30 0 -9 8 -16 20 -16 11 0
20 -4 20 -10 0 -6 47 -10 120 -10 73 0 120 4 120 10 0 6 43 10 110 10 67 0
110 4 110 10 0 6 9 10 20 10 13 0 20 7 20 20 0 17 7 20 46 20 40 0 50 -5 84
-40 l38 -40 96 0 c57 0 96 4 96 10 0 6 23 10 50 10 28 0 50 5 50 10 0 6 30 10
70 10 40 0 70 -4 70 -10 0 -6 33 -10 80 -10 47 0 80 4 80 10 0 6 18 10 40 10
22 0 40 5 40 10 0 6 23 10 50 10 28 0 50 5 50 10 0 6 29 10 66 10 60 0 68 3
94 30 31 33 60 39 60 12 0 -10 9 -24 20 -32 11 -8 20 -22 20 -32 0 -10 5 -18
10 -18 6 0 10 -7 10 -15 0 -9 16 -31 35 -50 34 -34 36 -35 120 -35 50 0 85 4
85 10 0 6 14 10 30 10 17 0 30 -4 30 -10 0 -5 5 -10 11 -10 5 0 7 5 4 10 -4 6
30 10 95 10 94 0 103 2 125 25 l25 24 0 416 0 415 40 0 40 0 0 -340 c0 -220 4
-340 10 -340 6 0 10 -22 10 -50 0 -27 5 -50 10 -50 6 0 10 -9 10 -20 0 -13 7
-20 20 -20 11 0 20 -4 20 -10 0 -6 40 -10 100 -10 60 0 100 -4 100 -10 0 -6
45 -10 115 -10 l116 0 34 35 35 34 0 396 0 395 70 0 c40 0 70 4 70 10 0 6 9
10 20 10 13 0 20 7 20 20 0 11 5 20 10 20 6 0 10 9 10 20 0 11 5 20 10 20 6 0
10 14 10 30 0 17 -4 30 -10 30 -6 0 -10 33 -10 80 0 47 -4 80 -10 80 -6 0 -10
43 -10 110 0 67 -4 110 -10 110 -5 0 -10 7 -10 15 0 9 -11 27 -25 40 -20 21
-34 25 -80 25 -30 0 -55 5 -55 10 0 6 -67 10 -180 10 -113 0 -180 -4 -180 -10
0 -5 -22 -10 -50 -10 -27 0 -50 5 -50 10 0 6 -50 10 -130 10 -80 0 -130 4
-130 10 0 6 -27 10 -60 10 -33 0 -60 -4 -60 -10 0 -5 -18 -10 -40 -10 -22 0
-40 -4 -40 -10 0 -5 -18 -10 -40 -10 -22 0 -40 -4 -40 -10 0 -5 -22 -10 -50
-10 -27 0 -50 -4 -50 -10 0 -5 -13 -10 -30 -10 -16 0 -30 -4 -30 -10 0 -5 -7
-10 -16 -10 -9 0 -29 -13 -44 -30 -33 -35 -40 -37 -40 -10 0 11 -4 20 -10 20
-5 0 -10 9 -10 20 0 11 -4 20 -10 20 -5 0 -10 7 -10 15 0 9 -11 27 -25 40 -24
24 -28 25 -180 25 -97 0 -155 -4 -155 -10 0 -6 -35 -10 -85 -10 -84 0 -86 -1
-120 -35 l-35 -34 0 -116 c0 -70 4 -115 10 -115 16 0 13 -277 -2 -284 -10 -5
-10 -7 0 -12 14 -7 17 -104 2 -104 -5 0 -10 14 -10 30 0 17 -4 30 -10 30 -5 0
-10 18 -10 40 0 22 -4 40 -10 40 -5 0 -10 18 -10 40 0 22 -4 40 -10 40 -5 0
-10 23 -10 50 0 28 -4 50 -10 50 -5 0 -10 23 -10 50 0 28 -4 50 -10 50 -5 0
-10 18 -10 40 0 22 -4 40 -10 40 -5 0 -10 18 -10 40 0 22 -4 40 -10 40 -5 0
-10 11 -10 25 0 16 -13 39 -35 60 -34 34 -36 35 -120 35 -50 0 -85 -4 -85 -10
0 -6 -37 -10 -90 -10 -53 0 -90 -4 -90 -10 0 -6 -37 -10 -90 -10 -53 0 -90 -4
-90 -10 0 -5 -7 -10 -16 -10 -20 0 -44 -24 -44 -44 0 -9 -4 -16 -10 -16 -5 0
-10 -22 -10 -50 0 -27 -4 -50 -10 -50 -5 0 -10 -18 -10 -40 0 -22 -4 -40 -10
-40 -5 0 -10 -18 -10 -40 0 -22 -4 -40 -10 -40 -5 0 -10 -18 -10 -40 0 -22 -4
-40 -10 -40 -5 0 -10 -18 -10 -40 0 -22 -4 -40 -10 -40 -5 0 -10 -22 -10 -50
0 -27 -4 -50 -10 -50 -5 0 -10 -18 -10 -40 0 -22 -4 -40 -10 -40 -5 0 -10 -18
-10 -40 0 -22 -4 -40 -10 -40 -5 0 -10 -22 -10 -50 0 -27 -4 -50 -10 -50 -5 0
-10 -18 -10 -40 0 -22 -4 -40 -10 -40 -5 0 -10 -16 -10 -36 0 -19 -6 -42 -14
-50 -20 -19 -26 -18 -26 6 0 11 -4 20 -10 20 -5 0 -10 9 -10 20 0 11 -4 20
-10 20 -5 0 -10 9 -10 20 0 11 -4 20 -10 20 -5 0 -10 9 -10 19 0 11 -6 21 -12
23 -17 6 14 38 36 38 9 0 16 7 16 16 0 9 14 29 30 44 18 17 30 38 30 54 0 14
5 26 10 26 6 0 10 18 10 40 0 22 5 40 10 40 6 0 10 53 10 140 0 87 -4 140 -10
140 -5 0 -10 18 -10 40 0 22 -4 40 -10 40 -5 0 -10 14 -10 30 0 17 -4 30 -10
30 -5 0 -10 7 -10 15 0 20 -125 145 -145 145 -8 0 -15 5 -15 10 0 6 -13 10
-30 10 -16 0 -30 5 -30 10 0 6 -18 10 -40 10 -22 0 -40 5 -40 10 0 6 -93 10
-260 10 -167 0 -260 -4 -260 -10 0 -6 -47 -10 -120 -10 -73 0 -120 4 -120 10
0 6 -22 10 -50 10 -27 0 -50 5 -50 10 0 6 -18 10 -40 10 -22 0 -40 5 -40 10 0
6 -36 10 -88 10 -76 0 -89 -3 -102 -20 -15 -21 -50 -28 -50 -10 0 6 -9 10 -20
10 -11 0 -20 5 -20 10 0 6 -22 10 -50 10 -27 0 -50 -4 -50 -10z"/>
<path d="M18590 11340 c0 -5 -7 -10 -16 -10 -26 0 -44 -26 -44 -64 0 -20 -4
-36 -10 -36 -6 0 -10 -37 -10 -90 0 -53 4 -90 10 -90 6 0 10 -13 10 -30 0 -16
5 -30 10 -30 6 0 10 -9 10 -20 0 -11 5 -20 10 -20 6 0 10 -9 10 -20 0 -11 5
-20 10 -20 6 0 10 -7 10 -15 0 -19 184 -205 203 -205 7 0 19 -9 27 -20 8 -11
22 -20 32 -20 10 0 18 -4 18 -10 0 -5 9 -10 20 -10 11 0 20 -4 20 -10 0 -5 9
-10 20 -10 19 0 20 -7 20 -130 0 -80 4 -130 10 -130 6 0 10 -13 10 -30 0 -16
5 -30 10 -30 6 0 10 -11 10 -26 0 -18 18 -43 62 -86 36 -35 57 -63 50 -66 -6
-2 -12 -17 -12 -33 0 -16 -4 -29 -10 -29 -5 0 -10 -9 -10 -20 0 -11 -4 -20
-10 -20 -5 0 -10 -13 -10 -30 0 -16 -4 -30 -10 -30 -5 0 -10 -9 -10 -20 0 -11
-4 -20 -10 -20 -5 0 -10 -13 -10 -30 0 -16 -4 -30 -10 -30 -5 0 -10 -13 -10
-30 0 -16 -4 -30 -10 -30 -5 0 -10 -9 -10 -20 0 -11 -4 -20 -10 -20 -5 0 -10
-13 -10 -30 0 -16 -4 -30 -10 -30 -5 0 -10 -13 -10 -30 0 -16 -4 -30 -10 -30
-5 0 -10 -9 -10 -20 0 -11 -4 -20 -10 -20 -5 0 -10 -9 -10 -20 0 -11 -4 -20
-10 -20 -5 0 -10 -13 -10 -30 0 -16 -4 -30 -10 -30 -5 0 -10 -13 -10 -30 0
-16 -4 -30 -10 -30 -5 0 -10 -13 -10 -30 0 -16 -4 -30 -10 -30 -5 0 -10 -13
-10 -30 0 -16 -4 -30 -10 -30 -5 0 -10 -9 -10 -20 0 -11 -4 -20 -10 -20 -5 0
-10 -9 -10 -20 0 -13 -7 -20 -20 -20 -11 0 -20 5 -20 10 0 6 -9 10 -20 10 -11
0 -20 5 -20 10 0 6 -13 10 -30 10 -16 0 -30 5 -30 10 0 6 -13 10 -30 10 -16 0
-30 5 -30 10 0 6 -9 10 -20 10 -11 0 -20 5 -20 10 0 6 -13 10 -30 10 -16 0
-30 5 -30 10 0 6 -13 10 -30 10 -16 0 -30 5 -30 10 0 6 -13 10 -30 10 -16 0
-30 5 -30 10 0 6 -9 10 -20 10 -11 0 -20 5 -20 10 0 15 -70 12 -86 -4 -8 -8
-14 -22 -14 -30 0 -9 -4 -16 -10 -16 -15 0 -12 -49 4 -66 8 -8 22 -14 30 -14
9 0 16 -4 16 -10 0 -5 9 -10 20 -10 11 0 20 -4 20 -10 0 -5 14 -10 30 -10 17
0 30 -4 30 -10 0 -5 14 -10 30 -10 17 0 30 -4 30 -10 0 -5 9 -10 20 -10 11 0
20 -4 20 -10 0 -5 14 -10 30 -10 17 0 30 -4 30 -10 0 -5 14 -10 30 -10 17 0
30 -4 30 -10 0 -5 9 -10 20 -10 11 0 20 -4 20 -10 0 -5 14 -10 30 -10 17 0 30
-4 30 -10 0 -5 14 -10 30 -10 17 0 30 -4 30 -10 0 -5 14 -10 30 -10 17 0 30
-4 30 -10 0 -5 9 -10 20 -10 11 0 20 -4 20 -10 0 -5 14 -10 30 -10 17 0 30 -4
30 -10 0 -5 9 -10 20 -10 11 0 20 -4 20 -10 0 -5 14 -10 30 -10 17 0 30 -4 30
-10 0 -5 14 -10 30 -10 17 0 30 -4 30 -10 0 -5 14 -10 30 -10 17 0 30 -4 30
-10 0 -5 9 -10 20 -10 11 0 20 -4 20 -10 0 -5 14 -10 30 -10 17 0 30 -4 30
-10 0 -5 14 -10 30 -10 17 0 30 -4 30 -10 0 -5 9 -10 20 -10 11 0 20 -4 20
-10 0 -15 70 -12 86 4 8 8 14 26 14 40 0 14 5 26 10 26 15 0 12 29 -4 46 -8 8
-22 14 -30 14 -9 0 -16 5 -16 10 0 6 -9 10 -20 10 -11 0 -20 5 -20 10 0 6 -13
10 -30 10 -16 0 -30 5 -30 10 0 6 -13 10 -30 10 -16 0 -30 5 -30 10 0 6 -13
10 -30 10 -16 0 -30 5 -30 10 0 6 -9 10 -20 10 -11 0 -20 5 -20 10 0 6 -13 10
-30 10 -16 0 -30 5 -30 10 0 6 -13 10 -30 10 -16 0 -30 5 -30 10 0 6 -9 10
-20 10 -11 0 -20 5 -20 10 0 6 -9 10 -20 10 -13 0 -20 7 -20 20 0 11 5 20 10
20 6 0 10 14 10 30 0 17 5 30 10 30 6 0 10 9 10 20 0 11 5 20 10 20 6 0 10 14
10 30 0 17 5 30 10 30 6 0 10 14 10 30 0 17 5 30 10 30 6 0 10 9 10 20 0 11 5
20 10 20 6 0 10 14 10 30 0 17 5 30 10 30 6 0 10 14 10 30 0 17 5 30 10 30 6
0 10 9 10 20 0 11 5 20 10 20 6 0 10 14 10 30 0 17 5 30 10 30 6 0 10 14 10
30 0 17 5 30 10 30 6 0 10 9 10 20 0 11 5 20 10 20 6 0 10 14 10 30 0 17 5 30
10 30 6 0 10 9 10 20 0 11 5 20 10 20 6 0 10 14 10 30 0 17 5 30 10 30 6 0 10
14 10 30 0 17 5 30 10 30 6 0 10 7 10 16 0 31 27 44 94 44 37 0 66 4 66 10 0
6 14 10 30 10 17 0 30 5 30 10 0 6 7 10 15 10 19 0 145 124 145 143 0 7 9 19
20 27 11 8 20 20 20 28 0 20 32 50 38 34 2 -8 35 -12 113 -12 66 0 109 -4 109
-10 0 -6 27 -10 60 -10 33 0 60 4 60 10 0 6 33 10 80 10 47 0 80 4 80 10 0 6
14 10 30 10 17 0 30 5 30 10 0 24 35 6 80 -40 38 -39 56 -50 80 -50 32 0 80
37 80 62 0 8 9 20 20 28 11 8 20 22 20 32 0 10 5 18 10 18 6 0 10 14 10 30 0
17 5 30 10 30 6 0 10 43 10 110 0 67 -4 110 -10 110 -5 0 -10 14 -10 30 0 17
-4 30 -10 30 -5 0 -10 7 -10 15 0 20 -105 125 -125 125 -8 0 -15 5 -15 10 0 6
-9 10 -20 10 -11 0 -20 5 -20 10 0 6 -9 10 -20 10 -11 0 -20 5 -20 10 0 6 -37
10 -90 10 -53 0 -90 -4 -90 -10 0 -5 -13 -10 -28 -10 -16 0 -34 -8 -42 -20 -8
-11 -22 -20 -32 -20 -10 0 -18 -4 -18 -10 0 -5 -18 -10 -40 -10 -22 0 -40 5
-40 10 0 6 -13 10 -30 10 -16 0 -30 5 -30 10 0 6 -9 10 -20 10 -11 0 -20 5
-20 10 0 6 -13 10 -30 10 -16 0 -30 5 -30 10 0 6 -13 10 -30 10 -16 0 -30 5
-30 10 0 6 -13 10 -30 10 -16 0 -30 5 -30 10 0 6 -13 10 -30 10 -16 0 -30 5
-30 10 0 6 -13 10 -30 10 -16 0 -30 5 -30 10 0 6 -13 10 -30 10 -16 0 -30 5
-30 10 0 6 -9 10 -20 10 -11 0 -20 5 -20 10 0 6 -13 10 -30 10 -16 0 -30 5
-30 10 0 6 -13 10 -30 10 -16 0 -30 5 -30 10 0 6 -13 10 -30 10 -16 0 -30 5
-30 10 0 6 -13 10 -30 10 -16 0 -30 5 -30 10 0 6 -9 10 -20 10 -11 0 -20 5
-20 10 0 6 -13 10 -30 10 -16 0 -30 5 -30 10 0 6 -13 10 -30 10 -16 0 -30 5
-30 10 0 6 -13 10 -30 10 -16 0 -30 5 -30 10 0 6 -13 10 -30 10 -16 0 -30 5
-30 10 0 6 -9 10 -20 10 -11 0 -20 5 -20 10 0 6 -13 10 -30 10 -16 0 -30 5
-30 10 0 6 -13 10 -30 10 -16 0 -30 5 -30 10 0 6 -13 10 -30 10 -16 0 -30 5
-30 10 0 6 -9 10 -20 10 -11 0 -20 5 -20 10 0 6 -13 10 -30 10 -16 0 -30 -4
-30 -10z"/>
<path d="M17030 11120 c0 -6 -33 -10 -80 -10 -47 0 -80 -4 -80 -10 0 -6 -30
-10 -70 -10 -40 0 -70 -4 -70 -10 0 -6 -37 -10 -90 -10 -53 0 -90 4 -90 10 0
6 -67 10 -180 10 -113 0 -180 -4 -180 -10 0 -6 -40 -10 -100 -10 -64 0 -100
-4 -100 -11 0 -5 -4 -8 -9 -5 -5 3 -23 -7 -40 -23 -26 -24 -31 -36 -31 -75 0
-25 -3 -46 -6 -46 -3 0 -19 14 -34 30 -15 17 -35 30 -44 30 -9 0 -16 5 -16 10
0 6 -9 10 -20 10 -11 0 -20 5 -20 10 0 6 -9 10 -20 10 -11 0 -20 5 -20 10 0 6
-13 10 -30 10 -16 0 -30 5 -30 10 0 6 -27 10 -60 10 -33 0 -60 4 -60 10 0 6
-107 10 -300 10 -193 0 -300 -4 -300 -10 0 -6 -30 -10 -70 -10 -40 0 -70 -4
-70 -10 0 -5 -7 -10 -15 -10 -9 0 -27 -11 -40 -25 -22 -21 -25 -33 -25 -90 0
-36 -3 -65 -6 -65 -3 0 -23 18 -44 40 -21 22 -45 40 -52 40 -7 0 -20 9 -28 20
-8 11 -22 20 -32 20 -10 0 -18 5 -18 10 0 6 -9 10 -20 10 -11 0 -20 5 -20 10
0 6 -9 10 -20 10 -11 0 -20 5 -20 10 0 6 -9 10 -20 10 -11 0 -20 5 -20 10 0 6
-13 10 -30 10 -16 0 -30 5 -30 10 0 6 -22 10 -50 10 -27 0 -50 5 -50 10 0 6
-37 10 -90 10 -53 0 -90 -4 -90 -10 0 -5 -22 -10 -50 -10 -27 0 -50 -4 -50
-10 0 -5 -13 -10 -30 -10 -16 0 -30 -4 -30 -10 0 -5 -9 -10 -20 -10 -11 0 -20
-4 -20 -10 0 -5 -13 -10 -28 -10 -16 0 -34 -8 -42 -20 -8 -11 -21 -20 -30 -20
-9 0 -22 -9 -30 -20 -8 -11 -22 -20 -32 -20 -10 0 -18 -4 -18 -10 0 -5 -7 -10
-15 -10 -20 0 -105 -85 -105 -105 0 -8 -4 -15 -10 -15 -5 0 -10 -8 -10 -18 0
-10 -9 -24 -20 -32 -12 -8 -20 -26 -20 -42 0 -15 -4 -28 -10 -28 -5 0 -10 -9
-10 -20 0 -11 -4 -20 -10 -20 -5 0 -10 -13 -10 -30 0 -16 -4 -30 -10 -30 -5 0
-10 -18 -10 -40 0 -22 -4 -40 -10 -40 -6 0 -10 -60 -10 -160 0 -100 4 -160 10
-160 6 0 10 -13 10 -30 0 -16 5 -30 10 -30 6 0 10 -13 10 -30 0 -16 5 -30 10
-30 6 0 10 -13 10 -30 0 -16 5 -30 10 -30 6 0 10 -9 10 -20 0 -11 5 -20 10
-20 6 0 10 -8 10 -18 0 -10 9 -24 20 -32 11 -8 20 -21 20 -30 0 -9 9 -22 20
-30 11 -8 20 -20 20 -28 0 -18 66 -82 85 -82 8 0 15 -4 15 -10 0 -5 8 -10 18
-10 10 0 24 -9 32 -20 8 -11 22 -20 32 -20 10 0 18 -4 18 -10 0 -5 9 -10 20
-10 11 0 20 -4 20 -10 0 -5 9 -10 20 -10 11 0 20 -4 20 -10 0 -5 18 -10 40
-10 22 0 40 -4 40 -10 0 -6 27 -10 60 -10 33 0 60 -4 60 -10 0 -6 40 -10 100
-10 60 0 100 4 100 10 0 6 23 10 50 10 28 0 50 5 50 10 0 6 14 10 30 10 17 0
30 5 30 10 0 6 15 10 33 10 24 0 28 3 17 10 -12 8 -9 10 13 10 19 0 39 10 57
30 15 17 33 30 40 30 7 0 25 14 40 30 33 35 40 37 40 10 0 -11 5 -20 10 -20 6
0 10 -13 10 -30 0 -16 5 -30 10 -30 6 0 10 -9 10 -20 0 -13 7 -20 20 -20 11 0
20 -4 20 -10 0 -6 30 -10 70 -10 40 0 70 -4 70 -10 0 -6 35 -10 86 -10 54 0
83 -4 79 -10 -4 -6 32 -10 100 -10 l106 0 34 35 c19 19 35 41 35 50 0 22 8 19
40 -15 26 -28 32 -30 104 -30 44 0 76 4 76 10 0 6 18 10 40 10 22 0 40 5 40
10 0 6 14 10 30 10 17 0 30 5 30 10 0 6 18 10 40 10 22 0 40 5 40 10 0 16 70
11 87 -6 14 -13 14 -17 2 -26 -11 -7 -11 -11 -1 -15 6 -2 12 -11 12 -19 0 -20
45 -64 65 -64 8 0 15 -4 15 -10 0 -5 14 -10 30 -10 17 0 30 5 30 10 0 6 18 10
40 10 22 0 40 5 40 10 0 6 14 10 30 10 17 0 30 5 30 10 0 6 63 10 170 10 107
0 170 4 170 10 0 6 18 10 40 10 22 0 40 -4 40 -10 0 -6 123 -10 350 -10 227 0
350 4 350 10 0 6 9 10 19 10 11 0 22 6 25 13 5 10 7 10 12 0 3 -7 14 -13 25
-13 10 0 19 -4 19 -10 0 -6 127 -10 360 -10 233 0 360 4 360 10 0 6 7 10 15
10 29 0 65 47 65 85 0 19 5 35 10 35 6 0 10 33 10 80 0 47 4 80 10 80 6 0 10
27 10 60 0 33 4 60 10 60 6 0 10 32 10 75 0 67 -3 79 -25 100 -13 14 -31 25
-40 25 -8 0 -15 5 -15 10 0 6 -35 10 -86 10 -61 0 -90 4 -100 14 -12 12 -14
81 -14 416 l0 401 -25 24 c-23 24 -30 25 -150 25 -77 0 -125 -4 -125 -10 0 -6
-30 -10 -70 -10 -40 0 -70 -4 -70 -10 0 -6 -30 -10 -70 -10 -40 0 -70 -4 -70
-10 0 -5 -7 -10 -16 -10 -8 0 -22 -6 -30 -14 -8 -8 -14 -22 -14 -30 0 -9 -4
-16 -10 -16 -6 0 -10 -133 -10 -380 l0 -380 -70 0 -70 0 0 400 c0 260 -3 400
-10 400 -5 0 -10 7 -10 15 0 29 -47 65 -85 65 -19 0 -35 5 -35 10 0 6 -4 10
-10 10 -5 0 -10 -4 -10 -10z"/>
<path d="M6060 11000 c0 -6 -63 -10 -170 -10 -107 0 -170 -4 -170 -10 0 -6
-50 -10 -130 -10 -80 0 -130 -4 -130 -10 0 -5 -7 -10 -15 -10 -9 0 -27 -11
-40 -25 l-25 -24 0 -661 0 -661 35 -34 34 -35 456 0 c297 0 455 3 455 10 0 6
18 10 40 10 22 0 40 5 40 10 0 6 14 10 30 10 17 0 30 5 30 10 0 6 9 10 20 10
11 0 20 5 20 10 0 6 8 10 18 10 10 0 24 9 32 20 17 24 30 26 30 5 0 -26 66
-85 95 -85 14 0 25 -4 25 -10 0 -5 9 -10 20 -10 11 0 20 5 20 10 0 6 37 10 90
10 53 0 90 4 90 10 0 6 52 10 136 10 l136 0 28 30 c27 29 32 30 110 30 81 0
110 -11 110 -40 0 -20 28 -40 54 -40 14 0 26 -6 26 -12 0 -10 3 -9 9 1 7 11
10 11 15 0 5 -11 7 -11 12 -1 4 8 31 12 85 12 46 0 79 4 79 10 0 6 30 10 70
10 40 0 70 4 70 10 0 6 27 10 60 10 33 0 60 4 60 10 0 6 5 10 10 10 6 0 10 -9
10 -20 0 -13 7 -20 20 -20 11 0 20 -4 20 -10 0 -6 33 -10 80 -10 47 0 80 -4
80 -10 0 -6 37 -10 90 -10 53 0 90 -4 90 -10 0 -6 33 -10 80 -10 47 0 80 4 80
10 0 6 7 10 15 10 20 0 65 45 65 65 0 21 13 19 30 -5 8 -11 22 -20 32 -20 10
0 18 -4 18 -10 0 -6 27 -10 60 -10 33 0 60 4 60 10 0 6 18 10 40 10 22 0 40 5
40 10 0 6 18 10 40 10 22 0 40 5 40 10 0 6 18 10 40 10 22 0 40 5 40 10 0 6
23 10 50 10 28 0 50 5 50 10 0 6 9 10 20 10 11 0 20 5 20 10 0 6 9 10 20 10
16 0 20 7 20 30 0 17 5 30 10 30 6 0 10 18 10 40 0 22 -4 40 -10 40 -5 0 -10
8 -10 18 0 10 -9 24 -20 32 -11 8 -20 22 -20 32 0 10 -4 18 -10 18 -5 0 -10 9
-10 20 0 11 -4 20 -10 20 -5 0 -10 8 -10 18 0 10 -9 24 -20 32 -11 8 -20 22
-20 32 0 10 -4 18 -10 18 -5 0 -10 9 -10 20 0 11 -4 20 -10 20 -5 0 -10 7 -10
16 0 18 23 44 40 44 16 0 40 26 40 42 0 8 9 20 20 28 11 8 20 22 20 32 0 10 5
18 10 18 6 0 10 9 10 20 0 11 5 20 10 20 6 0 10 23 10 50 0 28 5 50 10 50 6 0
10 40 10 100 0 60 -4 100 -10 100 -5 0 -10 23 -10 50 0 28 -4 50 -10 50 -5 0
-10 9 -10 20 0 11 -4 20 -10 20 -5 0 -10 9 -10 20 0 11 -4 20 -10 20 -5 0 -10
7 -10 15 0 19 -84 105 -103 105 -7 0 -19 9 -27 20 -8 12 -26 20 -42 20 -15 0
-28 5 -28 10 0 6 -13 10 -30 10 -16 0 -30 5 -30 10 0 6 -22 10 -50 10 -27 0
-50 5 -50 10 0 6 -110 10 -310 10 -200 0 -310 -4 -310 -10 0 -6 -32 -10 -76
-10 -73 0 -77 -1 -110 -34 l-34 -34 0 -146 c0 -91 -4 -146 -10 -146 -5 0 -10
-13 -10 -30 0 -16 5 -30 10 -30 6 0 10 -77 10 -210 0 -115 -3 -210 -6 -210
-16 0 -34 33 -34 64 0 20 -4 36 -10 36 -5 0 -10 14 -10 30 0 17 -4 30 -10 30
-5 0 -10 18 -10 40 0 22 -4 40 -10 40 -5 0 -10 18 -10 40 0 22 -4 40 -10 40
-5 0 -10 14 -10 30 0 17 -4 30 -10 30 -5 0 -10 18 -10 40 0 22 -4 40 -10 40
-5 0 -10 18 -10 40 0 22 -4 40 -10 40 -5 0 -10 14 -10 30 0 17 -4 30 -10 30
-5 0 -10 18 -10 40 0 22 -4 40 -10 40 -5 0 -10 15 -10 34 0 19 -4 38 -10 41
-5 3 -10 15 -10 26 0 10 -4 19 -10 19 -5 0 -10 7 -10 16 0 20 -24 44 -44 44
-9 0 -16 5 -16 10 0 6 -37 10 -90 10 -53 0 -90 -4 -90 -10 0 -6 -43 -10 -110
-10 -67 0 -110 -4 -110 -10 0 -6 -46 -10 -118 -10 -106 0 -119 -2 -132 -20 -8
-11 -22 -20 -32 -20 -13 0 -18 -8 -18 -30 0 -16 -4 -30 -10 -30 -5 0 -10 -13
-10 -30 0 -16 -4 -30 -10 -30 -5 0 -10 -13 -10 -30 0 -16 -4 -30 -10 -30 -5 0
-10 -18 -10 -40 0 -22 -4 -40 -10 -40 -5 0 -10 -13 -10 -30 0 -16 -4 -30 -10
-30 -5 0 -10 -18 -10 -40 0 -22 -4 -40 -10 -40 -5 0 -10 -13 -10 -30 0 -16 -4
-30 -10 -30 -5 0 -10 -18 -10 -40 0 -22 -4 -40 -10 -40 -5 0 -10 -13 -10 -30
0 -16 -4 -30 -10 -30 -5 0 -10 -19 -10 -42 0 -32 -3 -39 -10 -28 -7 11 -10 4
-10 -27 0 -24 -4 -43 -10 -43 -5 0 -10 -13 -10 -30 0 -16 -4 -30 -10 -30 -5 0
-10 -13 -10 -30 0 -16 -3 -30 -6 -30 -14 0 -34 31 -34 54 0 14 -4 26 -10 26
-5 0 -10 9 -10 20 0 11 -4 20 -10 20 -5 0 -10 7 -10 16 0 9 -13 29 -30 44 -16
15 -30 33 -30 39 0 6 -5 11 -12 11 -6 0 -1 8 10 19 12 10 22 26 22 35 0 9 5
16 10 16 6 0 10 18 10 40 0 22 5 40 10 40 6 0 10 40 10 100 0 60 -4 100 -10
100 -5 0 -10 18 -10 40 0 22 -4 40 -10 40 -5 0 -10 9 -10 20 0 11 -4 20 -10
20 -5 0 -10 7 -10 16 0 9 -13 29 -30 44 -16 15 -30 35 -30 44 0 9 -7 16 -16
16 -9 0 -29 14 -44 30 -17 18 -38 30 -54 30 -14 0 -26 5 -26 10 0 6 -9 10 -20
10 -11 0 -20 5 -20 10 0 6 -18 10 -40 10 -22 0 -40 5 -40 10 0 6 -47 10 -120
10 -73 0 -120 -4 -120 -10z"/>
</g>
</svg>
